PathFileType	4	(X/Y/Z)	C:\Users\Basilio\Documents\Thesis Gigler\squatting_fais\c3dfiles\058\SLS_front_pre2\markers_experimental.trc
DataRate	CameraRate	NumFrames	NumMarkers	Units	OrigDataRate	OrigDataStartFrame	OrigNumFrames
200.000000	200.000000	4	61	mm	200.000000	313	1252
Frame#	Time	FHD			LBHD			RBHD			C7			T10			CLAV			LSHO			LUUPA			LMUPA			LDUPA			LLEP			LMEP			LUL			LRFIN			RSHO			RUPA1			RMUPA			RDUPA			RLEP			RMEP			RRAD			RUL			RUFIN			LASI			RASI			USACR			LSACR			RSACR			LTHI1			LTHI2			LTHI3			LTHI4			LLFC			LMFC			LTIB1			LTIB2			LTIB3			LTIB4			LLMAL			LMMAL			LHEE			LMT1			LMT2			LMT5			RTHI			RTHI2			RTHI3			RTHI4			RLFC			RMFC			RTIB2			RTIB3			RTIB4			RLMAL			RMMAL			RHEE			RMT1			RMT2			RMT5			RTIB1			LRAD			
		X1	Y1	Z1	X2	Y2	Z2	X3	Y3	Z3	X4	Y4	Z4	X5	Y5	Z5	X6	Y6	Z6	X7	Y7	Z7	X8	Y8	Z8	X9	Y9	Z9	X10	Y10	Z10	X11	Y11	Z11	X12	Y12	Z12	X13	Y13	Z13	X14	Y14	Z14	X15	Y15	Z15	X16	Y16	Z16	X17	Y17	Z17	X18	Y18	Z18	X19	Y19	Z19	X20	Y20	Z20	X21	Y21	Z21	X22	Y22	Z22	X23	Y23	Z23	X24	Y24	Z24	X25	Y25	Z25	X26	Y26	Z26	X27	Y27	Z27	X28	Y28	Z28	X29	Y29	Z29	X30	Y30	Z30	X31	Y31	Z31	X32	Y32	Z32	X33	Y33	Z33	X34	Y34	Z34	X35	Y35	Z35	X36	Y36	Z36	X37	Y37	Z37	X38	Y38	Z38	X39	Y39	Z39	X40	Y40	Z40	X41	Y41	Z41	X42	Y42	Z42	X43	Y43	Z43	X44	Y44	Z44	X45	Y45	Z45	X46	Y46	Z46	X47	Y47	Z47	X48	Y48	Z48	X49	Y49	Z49	X50	Y50	Z50	X51	Y51	Z51	X52	Y52	Z52	X53	Y53	Z53	X54	Y54	Z54	X55	Y55	Z55	X56	Y56	Z56	X57	Y57	Z57	X58	Y58	Z58	X59	Y59	Z59	X60	Y60	Z60	X61	Y61	Z61	

314	1.565	-320.4427795410157	1808.903564453125	-617.5057373046876	-472.9248962402345	1753.092651367188	-695.0636596679689	-304.3975524902344	1816.0576171875	-758.9719238281251	-479.6889953613282	1590.254150390625	-708.2799682617189	-469.098114013672	1283.476196289063	-696.7130126953126	-320.2351684570313	1553.578125	-692.5364379882814	-332.6597595214844	1603.18896484375	-848.3677368164065	-187.9881591796875	1521.0673828125	-969.6885986328127	-159.3056793212891	1557.8837890625	-950.2998657226565	-118.1209411621094	1520.15234375	-972.0584716796877	-40.76820373535157	1520.976440429688	-964.656921386719	-36.33062362670899	1464.3544921875	-932.3936157226565	229.1622314453126	1553.37353515625	-927.138610839844	322.2911987304688	1550.043334960938	-845.5870361328127	-352.4814147949219	1601.134399414063	-537.8388671875001	-197.7605438232422	1508.031494140625	-424.8939514160157	-172.9180755615235	1546.664428710938	-446.0063781738282	-128.5746002197266	1515.5634765625	-423.2905273437501	-60.74093627929689	1505.8154296875	-427.5254821777345	-51.6124954223633	1448.820556640625	-478.8771972656251	209.4281463623047	1539.228271484375	-512.5348510742189	208.5546569824219	1551.284545898438	-431.3344726562501	302.5345764160157	1561.82568359375	-498.031463623047	-291.7075500488282	1108.467163085938	-855.5271606445315	-264.6689453125001	1082.449340820313	-616.1162109375001	-474.1275634765626	1161.437744140625	-696.5706176757814	-483.8637695312501	1132	-726.2373046875001	-470.7383422851564	1126.9755859375	-670.2703857421876	-247.8042755126954	856.2156982421877	-940.7001953125002	-192.2615509033204	792.684997558594	-934.830261230469	-153.7405548095703	804.4538574218752	-903.5852661132815	-199.0665740966797	733.2875976562501	-933.0539550781252	-156.3574371337891	642.9215698242189	-927.6535644531252	-150.1566772460938	624.9954833984376	-801.745056152344	-53.09942626953126	539.1675415039064	-890.8327636718752	-75.7367401123047	491.2717895507814	-957.1109008789065	-41.30517578125001	496.4793701171876	-928.5591430664065	-6.310217380523683	421.8219604492189	-909.783630371094	24.47010612487794	221.0465240478516	-947.5158691406252	35.47828674316407	231.8405761718751	-855.0743408203127	-24.82553100585938	162.2940521240235	-904.0887451171877	186.2944641113282	217.9850769042969	-866.963806152344	193.9322509765626	228.7097167968751	-911.8836669921877	159.1067199707032	200.2206115722657	-970.9514770507815	-360.5203857421876	863.8128662109377	-559.6390380859376	-321.4745483398438	810.586364746094	-563.4035034179689	-289.1207885742188	812.243347167969	-566.1449584960939	-347.1731567382813	732.5227050781251	-583.5775146484376	-336.4703369140626	553.2774658203126	-615.4483642578126	-303.6363525390626	551.3372802734376	-748.7926025390626	-332.6072998046876	273.1490478515626	-656.5732421875001	-297.2196350097657	267.7779541015626	-689.3118896484376	-309.8598937988282	226.1566467285157	-727.5809326171876	-371.9123535156251	118.5387039184571	-694.1026000976564	-341.9153137207032	143.8207092285157	-780.9478149414065	-438.1679992675782	102.0254287719727	-756.8411254882814	-229.4647979736329	58.36904525756837	-771.519470214844	-221.609115600586	59.36715316772462	-718.5595703125001	-271.2502136230469	28.86582374572755	-666.4168090820314	-292.9567260742188	354.2888488769532	-716.5353393554689	222.3657989501954	1525.667236328125	-850.608581542969	
315	1.57	-320.6176757812501	1808.81689453125	-617.5755004882814	-473.0506896972657	1753.028564453125	-695.0585937500001	-304.5541992187501	1816.111938476563	-758.9700927734376	-479.8128356933595	1590.119750976563	-708.2766113281251	-469.1979980468751	1283.369750976563	-696.6841430664064	-320.3457336425782	1553.584350585938	-692.4984741210939	-332.9055480957032	1603.225952148438	-848.4028320312502	-188.1747741699219	1521.017822265625	-969.691101074219	-159.42236328125	1557.814819335938	-950.308044433594	-118.3487091064453	1520.137084960938	-972.012634277344	-40.85225677490235	1520.932006835938	-964.6191406250002	-36.57496643066407	1464.539306640625	-932.3045043945315	228.9614715576172	1553.429565429688	-927.176208496094	322.1225280761719	1550.1982421875	-845.7444458007815	-352.5538024902344	1601.12548828125	-537.7966308593751	-197.8853912353516	1507.967529296875	-424.770721435547	-173.0630187988282	1546.78076171875	-445.8830566406251	-128.7256774902344	1515.533447265625	-423.2283935546876	-60.84204864501955	1505.840576171875	-427.4077758789064	-51.73781204223634	1448.891357421875	-478.7632446289064	209.7457427978516	1539.457641601563	-512.3999633789064	208.4194335937501	1551.410034179688	-431.1872558593751	302.4417419433594	1562.030883789063	-497.713348388672	-291.6719970703126	1108.514038085938	-855.514587402344	-264.6907348632813	1082.5556640625	-616.0391235351564	-474.1888732910157	1161.343505859375	-696.6028442382814	-483.9568786621095	1131.9716796875	-726.2828979492189	-470.8590087890626	1126.9375	-670.3153686523439	-247.5555419921876	856.3962402343752	-940.8010864257815	-191.9447174072266	792.9390869140627	-934.9285888671877	-153.2941436767578	804.8099365234377	-903.7509765625002	-198.7048645019532	733.5921020507814	-933.044372558594	-155.9244995117188	643.2416992187501	-927.7830810546877	-149.9418640136719	625.1517944335939	-801.805603027344	-52.63232803344728	539.6954345703126	-890.9844970703127	-75.17018127441408	491.6863403320314	-957.1892700195315	-40.39699172973634	497.2914123535157	-928.907409667969	-5.546967029571534	422.1095275878907	-909.849792480469	25.58115959167481	221.6595611572266	-947.7744750976565	36.24597549438477	232.5638885498047	-855.2906494140627	-23.3470687866211	162.6997222900391	-904.430358886719	187.2546081542969	218.9875946044922	-867.0444335937502	195.2102966308594	229.8178863525391	-912.089294433594	160.440414428711	201.3807220458985	-971.4412841796877	-360.6003417968751	863.846374511719	-559.7551269531251	-321.5491638183594	810.5582275390627	-563.4946899414064	-289.1848754882813	812.218688964844	-566.1838378906251	-347.2356872558594	732.4304809570314	-583.6952514648439	-336.4818115234376	553.2993774414064	-615.5173950195314	-303.4988708496094	551.4203491210939	-748.8519287109376	-332.5884094238282	273.1235656738282	-656.5994873046876	-297.2158203125001	267.8242492675782	-689.3943481445314	-309.7598266601563	226.1593780517579	-727.6754760742189	-371.9081726074219	118.6037139892578	-694.1204833984376	-341.9743957519532	143.8061981201172	-781.0034790039065	-438.1688537597657	102.0266723632813	-756.8707275390626	-229.4427795410157	58.32413864135744	-771.530944824219	-221.5747528076172	59.40014648437501	-718.5957031250001	-271.2314758300782	28.90702056884766	-666.4147338867189	-292.9268493652344	354.4241638183594	-716.6309204101564	222.3239746093751	1525.648681640625	-850.570983886719	
316	1.575	-320.7113952636719	1808.91064453125	-617.5483398437501	-473.1529541015626	1752.958129882813	-695.0651855468751	-304.8990478515626	1816.189819335938	-758.9920654296876	-479.9791870117189	1590.100708007813	-708.2043457031251	-469.3241577148439	1283.33740234375	-696.5928955078126	-320.5208740234376	1553.595092773438	-692.5014648437501	-332.8504943847657	1603.229370117188	-848.4011840820315	-188.2041778564453	1520.890014648438	-969.636413574219	-159.5176239013672	1557.836669921875	-950.3739013671877	-118.3821105957032	1520.079467773438	-972.024597167969	-40.99222946166993	1520.963134765625	-964.6443481445315	-36.56501388549805	1464.5185546875	-932.320007324219	228.9773559570313	1553.54638671875	-927.2789306640627	322.0037536621094	1550.378051757813	-845.7812500000002	-352.6352844238282	1601.140991210938	-537.8593139648439	-197.9527740478516	1507.91748046875	-424.7130432128907	-173.2328186035157	1546.71337890625	-445.8085327148439	-128.7550659179688	1515.650268554688	-423.1330566406251	-60.94285964965822	1505.922607421875	-427.3416137695314	-51.78792953491212	1448.930786132813	-478.6606750488282	209.3863372802735	1539.40625	-512.2564086914064	208.4116821289063	1551.57861328125	-431.0729370117189	301.8929443359376	1561.607421875	-498.2617187500001	-291.5415344238282	1108.620727539063	-855.5195922851565	-264.7721557617188	1082.48828125	-615.9253540039064	-474.2347106933595	1161.302001953125	-696.6335449218751	-484.0294799804689	1131.930297851563	-726.3275756835939	-470.9091796875001	1126.856079101563	-670.3360595703126	-247.3012084960938	856.5321044921877	-940.8262939453127	-191.6183624267578	793.1868896484377	-935.0189208984377	-153.0999450683594	805.1423339843752	-903.8284912109377	-198.3017730712891	733.8615112304689	-933.1896972656252	-154.6166534423828	644.0266113281251	-928.6192016601565	-149.6917572021485	625.3262939453126	-801.9175415039065	-51.99097442626955	539.9893798828126	-891.0036621093752	-74.88984680175783	492.3765869140626	-957.3821411132815	-39.53888320922852	497.1900634765626	-928.8496704101565	-4.71533489227295	422.7733154296876	-910.0606689453127	26.49693298339844	222.1723175048829	-947.880065917969	37.32982254028321	233.2470855712891	-855.321960449219	-22.29481887817383	163.3111877441407	-904.456970214844	188.5678253173828	219.8443450927735	-867.240417480469	195.9293518066407	230.4918823242188	-912.145690917969	161.4231109619141	201.9405670166016	-971.4776611328127	-360.6799621582032	863.8052368164065	-559.8381958007814	-321.6627197265626	810.5039672851565	-563.6201171875001	-289.2570495605469	812.2310791015627	-566.2126464843751	-347.3888549804688	732.4718017578126	-583.8459472656251	-336.4865417480469	553.3335571289064	-615.6029052734376	-303.5364685058594	551.3810424804689	-748.9587402343751	-332.5647583007813	273.1418151855469	-656.6360473632814	-297.1849975585938	267.7896423339844	-689.5106201171876	-309.8680419921876	226.2882843017579	-727.7276000976564	-371.8853454589844	118.5624237060547	-694.1649169921876	-341.9196777343751	143.806625366211	-781.087585449219	-438.157684326172	102.0249862670899	-756.8780517578126	-229.5543518066407	58.27418136596681	-771.5705566406252	-221.5723876953126	59.4468231201172	-718.5930786132814	-271.2408752441407	28.93793869018555	-666.4530639648439	-292.9699096679688	354.3101196289063	-716.8036499023439	222.2375640869141	1525.801635742188	-850.6248168945315	
317	1.58	-321.1449890136719	1808.856689453125	-617.5385742187501	-473.4766540527345	1752.897094726563	-695.0096435546876	-305.0220947265626	1816.216796875	-758.9758300781251	-479.9908752441407	1590.112426757813	-708.2490234375001	-469.4065551757814	1283.33740234375	-696.5653686523439	-320.5507507324219	1553.555908203125	-692.5162963867189	-332.9277343750001	1603.1875	-848.4265747070315	-188.3972473144532	1520.800903320313	-969.6209106445315	-159.6011352539063	1557.856323242188	-950.4571533203127	-118.562858581543	1520.014404296875	-971.989196777344	-41.05541992187501	1520.967163085938	-964.6514282226565	-36.65745162963868	1464.529052734375	-932.2744140625002	228.8947143554688	1553.644897460938	-927.3781738281252	321.8460998535157	1550.53271484375	-845.8670654296877	-352.6561584472657	1601.178588867188	-537.8478393554689	-198.1900482177735	1507.727783203125	-424.5853576660157	-173.2718353271485	1546.741577148438	-445.7345581054689	-128.8432922363282	1515.69970703125	-423.014373779297	-61.013240814209	1506.013916015625	-427.2265014648439	-51.80282974243165	1449.002685546875	-478.5549621582032	209.3788299560547	1539.475219726563	-512.0534057617189	208.345443725586	1551.717651367188	-430.8996887207032	301.9467468261719	1561.782836914063	-498.0000915527345	-291.4977111816407	1108.658447265625	-855.4283447265627	-264.7697143554688	1082.561645507813	-615.8838500976564	-474.2837219238282	1161.243896484375	-696.6736450195314	-484.135711669922	1131.910400390625	-726.3342285156251	-470.9720153808595	1126.764404296875	-670.3771972656251	-247.1016235351563	856.7459106445315	-940.9304199218752	-191.4921569824219	793.3694458007815	-935.0589599609377	-152.9821166992188	805.3460083007815	-903.8273925781252	-198.0281829833985	733.9714965820314	-933.2593994140627	-155.1263122558594	643.7593383789064	-928.054626464844	-149.1771240234375	625.7020263671876	-801.9757080078127	-51.29323577880861	540.2344360351564	-891.1296997070315	-74.16448211669923	492.7824096679689	-957.6265869140627	-39.06938934326173	497.5967102050782	-928.8229980468752	-4.025258541107179	423.266571044922	-910.1907348632815	27.72788047790528	222.831039428711	-948.058288574219	38.67364883422852	233.8890838623047	-855.3523559570315	-20.72295761108399	163.5202026367188	-904.8524169921877	189.6849212646485	220.7501983642579	-867.4326782226565	197.3665313720704	231.5448913574219	-912.3610839843752	162.3713989257813	202.8235015869141	-971.677185058594	-360.6906127929688	863.8078613281252	-559.9373779296876	-321.7442016601563	810.5103759765627	-563.6828002929689	-289.2815856933594	812.228454589844	-566.2786865234376	-347.5976867675782	732.4827880859376	-583.9466552734376	-336.5470581054688	553.3892822265626	-615.6794433593751	-303.5915832519532	551.4917602539064	-749.0743408203126	-332.5615844726563	273.1424255371094	-656.7340698242189	-297.2539062500001	267.8547668457032	-689.6885986328126	-309.5982055664063	226.1172027587891	-727.7885131835939	-371.8568725585938	118.6770324707032	-694.1987915039064	-342.0118713378907	143.8111419677735	-781.107116699219	-438.1783752441407	102.0203018188477	-756.8907470703126	-229.5736541748047	58.14819335937501	-771.5527343750002	-221.5780181884766	59.41160964965822	-718.6119995117189	-271.2294311523438	28.95276069641114	-666.4498291015626	-293.1041259765626	354.2508544921876	-716.8958740234376	222.1721801757813	1526.402587890625	-850.6255493164065	
